<?xml version="1.0" encoding="UTF-8"?>
<svg width="111px" height="43px" viewBox="0 0 111 43" version="1.1" xmlns="http://www.w3.org/2000/svg" xmlns:xlink="http://www.w3.org/1999/xlink">
    <!-- Generator: Sketch 63.1 (92452) - https://sketch.com -->
    <title>Varios/color/logo_TodoPago_color</title>
    <desc>Created with Sketch.</desc>
    <g id="COMERCIOS" stroke="none" stroke-width="1" fill="none" fill-rule="evenodd">
        <g id="Header/desktop-Copy" transform="translate(-123.000000, -29.000000)" fill="#D8D8D8">
            <g id="Varios/color/logo_TodoPago_color" transform="translate(123.000000, 29.000000)">
                <path d="M86.0731661,22.5434454 C88.3758816,22.5434454 89.8966378,23.0684558 91.2652239,24.0312129 C91.5911453,24.2717435 91.9603863,24.7313854 91.9603863,25.3877674 C91.9603863,26.306734 91.2217467,27.050697 90.309356,27.050697 C89.831422,27.050697 89.5272393,26.8756936 89.2882723,26.7006901 C88.3758816,26.0441494 87.398275,25.650352 85.9644731,25.650352 C83.5314837,25.650352 81.5980092,27.8165554 81.5980092,30.4201881 L81.5980092,30.464296 C81.5980092,33.2649861 83.5095875,35.3217132 86.2034401,35.3217132 C87.4200136,35.3217132 88.5063131,35.0151794 89.3536456,34.402588 L89.3536456,32.2144893 L86.5407033,32.2144893 C85.736848,32.2144893 85.0851629,31.5800026 85.0851629,30.7703537 C85.0851629,29.9610222 85.736848,29.3044815 86.5407033,29.3044815 L90.917564,29.3044815 C91.8516933,29.3044815 92.5903329,30.0484446 92.5903329,30.9893064 L92.5903329,34.7091217 C92.5903329,35.693774 92.2210919,36.3718926 91.4172365,36.8532712 C90.1789245,37.6191295 88.3758816,38.3849878 86.0949047,38.3849878 C81.3590422,38.3849878 78.1004588,35.0372334 78.1004588,30.5079278 L78.1004588,30.464296 C78.1004588,26.1098352 81.4675777,22.5434454 86.0731661,22.5434454 Z M102.54267,22.5434454 C107.235055,22.5434454 110.602331,26.0660447 110.602331,30.4201881 L110.602331,30.464296 C110.602331,34.8184394 107.191578,38.3849878 102.499193,38.3849878 C97.8068072,38.3849878 94.4396884,34.8620712 94.4396884,30.5079278 L94.4396884,30.464296 C94.4396884,26.1098352 97.8502844,22.5434454 102.54267,22.5434454 Z M55.9493065,22.8058237 C59.5771309,22.8058237 61.7713109,24.9721858 61.7713109,28.1009876 L61.7713109,28.1449368 C61.7713109,31.6894313 59.0341387,33.527523 55.6233852,33.527523 L53.0817027,33.527523 L53.0817027,36.5689024 C53.0817027,37.5097642 52.3430632,38.2537273 51.4089338,38.2537273 C50.4748045,38.2537273 49.736165,37.5097642 49.736165,36.5689024 L49.736165,24.4906486 C49.736165,23.5499454 50.4748045,22.8058237 51.4089338,22.8058237 L55.9493065,22.8058237 Z M69.6964453,22.565182 C70.6088361,22.565182 71.2605212,23.0684558 71.6299198,23.9 L76.9306706,35.9561999 C77.039206,36.1968892 77.1042642,36.4155245 77.1042642,36.6344772 C77.1042642,37.5317071 76.4092594,38.2536162 75.5184497,38.2536162 C74.7364905,38.2536162 74.2150794,37.794133 73.9108966,37.0941191 L72.8898129,34.6872264 L66.1988949,34.6872264 L65.1343341,37.2032781 C64.8518899,37.8598188 64.2871591,38.2536162 63.5919967,38.2536162 C62.7229256,38.2536162 62.0495019,37.5534437 62.0495019,36.6782677 C62.0495019,36.4374198 62.1364562,36.1968892 62.2451492,35.9561999 L67.5457425,23.9 C67.915141,23.0684558 68.5885648,22.565182 69.5009555,22.565182 L69.6964453,22.565182 Z M102.499193,25.650352 C99.8054975,25.650352 97.9370813,27.7946601 97.9370813,30.4201881 L97.9370813,30.464296 C97.9370813,33.0896653 99.8488171,35.277764 102.54267,35.277764 C105.236522,35.277764 107.104781,33.1336145 107.104781,30.5079278 L107.104781,30.464296 C107.104781,27.8384506 105.193045,25.650352 102.499193,25.650352 Z M69.5444327,26.6568996 L67.437207,31.7112155 L71.6516584,31.7112155 L69.5444327,26.6568996 Z M55.6668623,25.8473618 L53.0817027,25.8473618 L53.0817027,30.5297755 L55.7320781,30.5297755 C57.404847,30.5297755 58.382296,29.5232279 58.382296,28.2104639 L58.382296,28.1666734 C58.382296,26.656852 57.3396312,25.8473618 55.6668623,25.8473618 Z M69.0446971,4.14182279 C73.7370824,4.14182279 77.1043588,7.66442207 77.1043588,12.0185655 L77.1043588,12.0626733 C77.1043588,16.4168167 73.6936052,19.9832066 69.0012199,19.9832066 C64.3088347,19.9832066 60.9415583,16.4604486 60.9415583,12.1063052 L60.9415583,12.0626733 C60.9415583,7.7082126 64.3523119,4.14182279 69.0446971,4.14182279 Z M102.54267,4.14182279 C107.235055,4.14182279 110.602331,7.66442207 110.602331,12.0185655 L110.602331,12.0626733 C110.602331,16.4168167 107.191578,19.9832066 102.499193,19.9832066 C97.8069648,19.9832066 94.4396884,16.4604486 94.4396884,12.1063052 L94.4396884,12.0626733 C94.4396884,7.7082126 97.8502844,4.14182279 102.54267,4.14182279 Z M59.8734373,4.40426453 C60.7206123,4.40426453 61.4157747,5.10443706 61.4157747,5.95787646 C61.4157747,6.81099854 60.7206123,7.51132973 59.8734373,7.51132973 L56.3795101,7.51132973 L56.3795101,18.1671846 C56.3795101,19.1082051 55.6408705,19.8518508 54.7067412,19.8518508 C53.7724543,19.8518508 53.0339723,19.1082051 53.0339723,18.1671846 L53.0339723,7.51132973 L49.4119764,7.51132973 C48.5648014,7.51132973 47.8696391,6.81099854 47.8696391,5.95787646 C47.8696391,5.10443706 48.5648014,4.40426453 49.4119764,4.40426453 L59.8734373,4.40426453 Z M84.9000698,4.40429626 C89.6794094,4.40429626 92.98147,7.7082602 92.98147,12.0186131 L92.98147,12.0625623 C92.98147,16.3729151 89.6794094,19.7206696 84.9000698,19.7206696 L80.6421413,19.7206696 C79.7080119,19.7206696 78.9693724,18.9767066 78.9693724,18.0358448 L78.9693724,6.08912113 C78.9693724,5.14810067 79.7080119,4.40429626 80.6421413,4.40429626 L84.9000698,4.40429626 Z M69.0012199,7.24872933 C66.3075249,7.24872933 64.4391087,9.39303747 64.4391087,12.0185655 L64.4391087,12.0626733 C64.4391087,14.6880427 66.3508446,16.8761413 69.0446971,16.8761413 C71.7385497,16.8761413 73.6068084,14.7318332 73.6068084,12.1063052 L73.6068084,12.0626733 C73.6068084,9.436828 71.694915,7.24872933 69.0012199,7.24872933 Z M102.499193,7.24872933 C99.8054975,7.24872933 97.9370813,9.39303747 97.9370813,12.0185655 L97.9370813,12.0626733 C97.9370813,14.6880427 99.8488171,16.8761413 102.54267,16.8761413 C105.236522,16.8761413 107.104781,14.7318332 107.104781,12.1063052 L107.104781,12.0626733 C107.104781,9.436828 105.193045,7.24872933 102.499193,7.24872933 Z M84.9000698,7.44567567 L82.3149102,7.44567567 L82.3149102,16.6792902 L84.9000698,16.6792902 C87.637242,16.6792902 89.4839196,14.8193032 89.4839196,12.1063528 L89.4839196,12.0625623 C89.4839196,9.34929454 87.637242,7.44567567 84.9000698,7.44567567 Z" id="TODO-PAGO" fill="#323E48"></path>
                <g id="Varios/color/logo_TodoPago_iso_color" fill="none">
                    <path d="M4.26923077,0 L38.4230769,0 C40.780908,0 42.6923077,1.92517558 42.6923077,4.3 L42.6923077,38.7 C42.6923077,41.0748244 40.780908,43 38.4230769,43 L4.26923077,43 C1.91139972,43 0,41.0748244 0,38.7 L0,4.3 C0,1.92517558 1.91139972,0 4.26923077,0 Z" id="fondo" fill="#DA167B"></path>
                    <path d="M29.3785635,10.4371788 L7.36571898,10.4371788 C6.18821194,10.4371788 5.22194729,11.4104075 5.22194729,12.5964011 C5.22194729,13.782236 6.18821194,14.7556234 7.36571898,14.7556234 L12.3996207,14.7556234 L12.3996207,30.2211384 C12.3996207,31.5289839 13.4262178,32.5628212 14.7245473,32.5628212 C16.0227193,32.5628212 17.0494739,31.5289839 17.0494739,30.2211384 L17.0494739,16.2349818 L15.9222177,15.2389058 C15.6492251,15.0386752 15.6826206,14.7534021 16.0529643,14.7534021 L28.9858511,14.7534021 C31.3109352,14.7534021 32.7601747,15.7893021 32.7601747,17.8879157 L32.7601747,17.9488417 C32.7601747,19.7734472 31.4015127,21.1609407 29.0765861,21.1609407 L24.9174264,21.1609407 C22.869588,21.1609407 21.5309319,22.5181299 21.5309319,24.2237394 L21.5309319,30.2211384 C21.5309319,31.5289839 22.5573715,32.5628212 23.855701,32.5628212 C25.1540305,32.5628212 26.1806276,31.5289839 26.1806276,30.2211384 L26.1806276,26.8138859 L24.9716153,25.7378446 C24.805898,25.5861644 24.87899,25.3386527 25.1171694,25.3386527 C25.1861658,25.3386527 28.9255186,25.338494 28.9255186,25.338494 C33.6659493,25.338494 37.4703604,22.7838876 37.4703604,17.8576114 L37.4703604,17.7968441 C37.4703604,13.4479365 34.4208141,10.4371788 29.3785635,10.4371788" id="TP" fill="#FFFFFF"></path>
                </g>
            </g>
        </g>
    </g>
</svg>